{"title":"Brighton.Rock.2010.DVDRip.AC3.XViD-EP1C","uid":6449210,"size":1689864648,"categoryP":"video","categoryS":"movies","magnet":"?xt=urn:btih:ba2c190b6c9cddf085267dd935ba257f1c2c18b2&amp;dn=Brighton.Rock.2010.DVDRip.AC3.XViD-EP1C&amp;tr=udp%3A%2F%2Ftracker.openbittorrent.com%3A80&amp;tr=udp%3A%2F%2Fopen.demonii.com%3A1337&amp;tr=udp%3A%2F%2Ftracker.coppersurfer.tk%3A6969&amp;tr=udp%3A%2F%2Fexodus.desync.com%3A6969","seeders":0,"leechers":1,"uploader":"sceneline","files":5,"time":1307320666,"description":"- &lt;a href=&quot;\nhttp://www.Speed.Cd&quot; rel=&quot;nofollow&quot; target=&quot;_NEW&quot;&gt;\nhttp://www.Speed.Cd&lt;/a&gt; \n       &lt;a href=&quot;\nhttp://www.Speed.Cd&quot; rel=&quot;nofollow&quot; target=&quot;_NEW&quot;&gt;\nhttp://www.Speed.Cd&lt;/a&gt;       the fast  and The Hottest Private Tracker on the net\n\n(((--Registration will be open on june every weekend--)))\n\nPlease Seed back to make the speed Faster!!!\n\n------------------nfo--------------------------\n                                       \n \n\n                  ::::::::::::  EP1C Presents  ::::::::::::\n\n::File:: Brighton.Rock.2010.DVDRip.AC3.XViD-EP1C\n\n::Video Source:: DVD5 wobferry (thx!)\n::Audio Source:: ^^   ^^\n\n::Language:::::: English\n::IMDB:::::::::: http://www.imdb.com/title/tt1233192/\n\nCharts the headlong fall of Pinkie, a razor-wielding disadvantaged teenager \nwith a religious death wish.\n\n::Specs:::::::::\n\nFormat                           : AVI\nFormat/Info                      : Audio Video Interleave\nFile size                        : 1.56 GiB\nDuration                         : 1h 46mn\nOverall bit rate                 : 2 099 Kbps\nWriting application              : VirtualDubMod 1.5.10.2 (build 2540/release)\nWriting library                  : VirtualDubMod build 2540/release\n\nVideo\nID                               : 0\nFormat                           : MPEG-4 Visual\nFormat profile                   : Advanced Simple@L5\nFormat settings, BVOP            : Yes\nFormat settings, QPel            : No\nFormat settings, GMC             : No warppoints\nFormat settings, Matrix          : Default (MPEG)\nMuxing mode                      : Packed bitstream\nCodec ID                         : XVID\nCodec ID/Hint                    : XviD\nDuration                         : 1h 46mn\nBit rate                         : 1 705 Kbps\nWidth                            : 720 pixels\nHeight                           : 304 pixels\nDisplay aspect ratio             : 2.35:1\nFrame rate                       : 25.000 fps\nColor space                      : YUV\nChroma subsampling               : 4:2:0\nBit depth                        : 8 bits\nScan type                        : Progressive\nBits/(Pixel*Frame)               : 0.312\nStream size                      : 1.27 GiB (81%)\nWriting library                  : XviD 58\n\nAudio\nID                               : 1\nFormat                           : AC-3\nFormat/Info                      : Audio Coding 3\nMode extension                   : CM (complete main)\nCodec ID                         : 2000\nDuration                         : 1h 46mn\nBit rate mode                    : Constant\nBit rate                         : 384 Kbps\nChannel(s)                       : 6 channels\nChannel positions                : Front: L C R, Side: L R, LFE\nSampling rate                    : 48.0 KHz\nBit depth                        : 16 bits\nStream size                      : 292 MiB (18%)\nAlignment                        : Split accross interleaves\nInterleave, duration             : 40 ms (1.00 video frame)\nInterleave, preload duration     : 500 ms\n\n::NOTES::::::::: \nPresenting the first DVDRip of Brighton Rock. Thanks wob for the source!\nEnjoy //EP1C\n\n:: Got something we might be interested in? contact us: &lt;a class=&quot;__cf_email__&quot; href=&quot;/cdn-cgi/l/email-protection&quot; data-cfemail=&quot;2346534a40634b56504b4e424a4f0d4e46&quot;&gt;[email&amp;#160;protected]&lt;/a&gt;&lt;script cf-hash='f9e31' type=&quot;text/javascript&quot;&gt;\n/* &lt;![CDATA[ */!function(){try{var t=&quot;currentScript&quot;in document?document.currentScript:function(){for(var t=document.getElementsByTagName(&quot;script&quot;),e=t.length;e--;)if(t[e].getAttribute(&quot;cf-hash&quot;))return t[e]}();if(t&amp;&amp;t.previousSibling){var e,r,n,i,c=t.previousSibling,a=c.getAttribute(&quot;data-cfemail&quot;);if(a){for(e=&quot;&quot;,r=parseInt(a.substr(0,2),16),n=2;a.length-n;n+=2)i=parseInt(a.substr(n,2),16)^r,e+=String.fromCharCode(i);e=document.createTextNode(e),c.parentNode.replaceChild(e,c)}}}catch(u){}}();/* ]]&gt; */&lt;/script&gt; ::\n\n::::::::::::::::::::::::::::::::  RESPECT  :::::::::::::::::::::::::::::::::\nIMAGiNE, Rx, FLAWL3SS, ViSiON, T0XiC, HiVE, bobwhite &amp; All Our Friends!\n\n                 ::::::::::::::::  We Are  ::::::::::::::::  \n               :::::: Surpassing the usual or ordinary ::::::\n::::::::::::::::::    Heroic and impressive in quality    ::::::::::::::::::     \n ::::::::::::::::::::::::::::::::   EP1C   ::::::::::::::::::::::::::::::::\n\n","torrent":{"xt":"urn:btih:ba2c190b6c9cddf085267dd935ba257f1c2c18b2","amp;dn":"Brighton.Rock.2010.DVDRip.AC3.XViD-EP1C","amp;tr":["udp%3A%2F%2Ftracker.openbittorrent.com%3A80","udp%3A%2F%2Fopen.demonii.com%3A1337","udp%3A%2F%2Ftracker.coppersurfer.tk%3A6969","udp%3A%2F%2Fexodus.desync.com%3A6969"],"infoHash":"ba2c190b6c9cddf085267dd935ba257f1c2c18b2","infoHashBuffer":{"type":"Buffer","data":[186,44,25,11,108,156,221,240,133,38,125,217,53,186,37,127,28,44,24,178]},"announce":[],"urlList":[]}}